#!OML:ASF F:\VICON\USERDATA\INSTALL\rory3\rory3.ASF
:FULLY-SPECIFIED
:DEGREES
188
root 0.257857 17.9204 17.5636 -4.21429 -4.60326 0.311636
lowerback 9.42669 1.48547 -0.307566
upperback 0.655554 1.95317 0.230258
thorax -4.62187 0.973407 0.153487
lowerneck -15.507 -2.63119 -1.6181
upperneck 20.5592 -3.44302 0.826497
head 9.05397 -1.65038 0.127914
rclavicle -1.12577e-014 -6.06293e-015
rhumerus -25.6528 -19.0867 -80.3028
rradius 26.5383
rwrist 5.37239
rhand -17.9607 20.516
rfingers 7.12502
rthumb 8.3083 -9.30058
lclavicle -1.12577e-014 -6.06293e-015
lhumerus -36.3982 9.53362 77.1484
lradius 23.0226
lwrist 3.44547
lhand -28.7423 21.5557
lfingers 7.12502
lthumb -2.10279 51.5251
rfemur -14.4967 -1.23257 20.9956
rtibia 75.1909
rfoot 1.38408 -4.59426
rtoes -0.283858
lfemur -11.0325 -3.19775 -25.348
ltibia 29.6892
lfoot -10.9315 -2.52805
ltoes 2.54426
189
root 0.260557 17.9297 17.743 -4.432 -4.32068 0.55424
lowerback 9.62181 1.35717 -0.546777
upperback 0.695998 1.75403 0.18943
thorax -4.69334 0.879221 0.267729
lowerneck -15.4554 -2.64492 -1.64829
upperneck 20.7051 -3.4484 0.785243
head 9.09471 -1.65972 0.117892
rclavicle -1.27486e-014 8.54774e-015
rhumerus -25.8597 -19.7504 -80.089
rradius 26.1415
rwrist 6.12522
rhand -17.9112 20.1268
rfingers 7.12502
rthumb 8.35605 -9.68787
lclavicle -1.27486e-014 8.54774e-015
lhumerus -36.0886 8.61538 77.4739
lradius 23.4232
lwrist 4.06921
lhand -29.035 20.8877
lfingers 7.12502
lthumb -2.38554 50.8541
rfemur -15.4916 -1.59566 20.741
rtibia 75.5344
rfoot 0.90361 -4.76268
rtoes 1.25832
lfemur -9.96145 -3.25152 -25.7603
ltibia 29.3906
lfoot -11.415 -2.50151
ltoes 3.02818
190
root 0.254794 17.9326 17.9108 -4.57622 -4.28744 0.390787
lowerback 9.9874 1.28979 -0.453637
upperback 0.692165 1.67634 0.262092
thorax -4.90057 0.839382 0.292906
lowerneck -15.502 -2.61947 -1.52302
upperneck 20.9454 -3.40801 0.613654
head 9.18019 -1.64891 0.041257
rclavicle 2.64958e-014 9.44227e-015
rhumerus -26.0821 -20.2459 -79.9355
rradius 25.716
rwrist 6.36144
rhand -18.0044 20.6674
rfingers 7.12502
rthumb 8.26612 -9.15089
lclavicle 2.64958e-014 9.44227e-015
lhumerus -35.6099 7.78801 77.7396
lradius 23.5814
lwrist 4.56548
lhand -29.3058 16.6269
lfingers 7.12502
lthumb -2.64701 46.5903
rfemur -16.6515 -1.67818 21.0963
rtibia 75.6921
rfoot 0.934729 -4.83972
rtoes 4.11489
lfemur -9.00037 -3.20646 -25.6581
ltibia 29.0385
lfoot -11.8661 -2.32513
ltoes 2.52235
191
root 0.253154 17.9328 18.0827 -4.63374 -4.24792 0.616667
lowerback 10.0134 1.18832 -0.778362
upperback 0.723315 1.5054 0.274319
thorax -4.88956 0.76197 0.51222
lowerneck -15.4826 -2.50415 -1.65583
upperneck 21.0679 -3.24581 0.740719
head 9.22206 -1.56955 0.126395
rclavicle -4.12789e-015 -1.22253e-014
rhumerus -26.2806 -20.52 -79.8517
rradius 25.3814
rwrist 6.44811
rhand -17.8318 20.0258
rfingers 7.12502
rthumb 8.43262 -9.78582
lclavicle -4.12789e-015 -1.22253e-014
lhumerus -35.0188 7.29939 77.9037
lradius 23.4857
lwrist 4.99722
lhand -28.5369 16.4167
lfingers 7.12502
lthumb -1.90448 46.3879
rfemur -17.9163 -1.70656 20.9637
rtibia 75.7273
rfoot 0.795586 -4.76697
rtoes 6.24963
lfemur -8.27614 -3.162 -25.9992
ltibia 28.8349
lfoot -12.1277 -2.17625
ltoes 2.81533
192
root 0.251774 17.9301 18.2611 -4.62375 -3.97984 0.798632
lowerback 9.75596 1.05398 -1.03066
upperback 0.801834 1.30099 0.263701
thorax -4.6656 0.665379 0.677341
lowerneck -15.2715 -2.47633 -1.78385
upperneck 21.0445 -3.21353 0.890766
head 9.17957 -1.54944 0.205831
rclavicle -6.31452e-015 -1.65985e-014
rhumerus -26.5136 -20.7543 -79.7908
rradius 25.1709
rwrist 6.55288
rhand -17.845 19.0685
rfingers 7.12502
rthumb 8.41989 -10.7436
lclavicle -6.31452e-015 -1.65985e-014
lhumerus -34.4193 6.80488 78.0004
lradius 23.2463
lwrist 5.6693
lhand -28.0578 17.3548
lfingers 7.12502
lthumb -1.44174 47.3297
rfemur -19.1042 -1.88972 20.8673
rtibia 75.5592
rfoot -0.108118 -4.80962
rtoes 6.48105
lfemur -7.75551 -3.44653 -26.3061
ltibia 28.678
lfoot -12.0931 -2.1975
ltoes 4.9233
193
root 0.248151 17.9254 18.4325 -4.6367 -3.53789 0.911658
lowerback 9.7015 0.837589 -1.26174
upperback 0.848191 0.990321 0.288116
thorax -4.58466 0.516101 0.8764
lowerneck -14.9508 -2.43027 -1.75452
upperneck 20.8994 -3.14745 0.833666
head 9.06765 -1.52482 0.194471
rclavicle 1.63034e-014 1.51076e-014
rhumerus -26.8209 -21.0685 -79.6483
rradius 24.9989
rwrist 6.70853
rhand -17.6032 19.3065
rfingers 7.12502
rthumb 8.65327 -10.4961
lclavicle 1.63034e-014 1.51076e-014
lhumerus -33.9044 6.38919 78.0524
lradius 23.1657
lwrist 6.14352
lhand -28.3563 16.257
lfingers 7.12502
lthumb -1.73001 46.2298
rfemur -20.2277 -2.23914 20.8488
rtibia 75.2193
rfoot -1.47129 -4.74706
rtoes 5.75146
lfemur -6.88704 -3.45611 -26.546
ltibia 28.6127
lfoot -12.8332 -2.0552
ltoes 3.16394
194
root 0.253359 17.9206 18.608 -4.62836 -3.1045 1.1167
lowerback 9.66979 0.589061 -1.44193
upperback 0.817317 0.640227 0.27418
thorax -4.59198 0.346719 1.01092
lowerneck -14.7206 -2.3433 -1.76619
upperneck 20.9088 -3.00728 0.742801
head 9.02516 -1.47148 0.185294
rclavicle -7.35814e-015 4.37326e-015
rhumerus -27.2203 -21.2451 -79.5206
rradius 24.9039
rwrist 6.58753
rhand -17.4752 21.2467
rfingers 7.12502
rthumb 8.77681 -8.55085
lclavicle -7.35814e-015 4.37326e-015
lhumerus -33.5275 5.97855 78.1131
lradius 23.5032
lwrist 6.09172
lhand -28.1285 18.002
lfingers 7.12502
lthumb -1.50998 47.9764
rfemur -21.2333 -2.63057 20.6119
rtibia 74.6774
rfoot -2.78583 -4.42631
rtoes 6.35956
lfemur -6.21327 -3.49036 -26.9263
ltibia 28.6601
lfoot -13.62 -1.9612
ltoes 1.51663
